# xmcd
#
# Track frame offsets:
#	182
#	18842
#	46170
#	83800
#	109295
#	130112
#	155597
#	179945
#	204527
#
# Disc length: 3087 seconds
#
# Revision: 1
# Processed by: cddbd v1.4PL0 Copyright (c) Steve Scherf et al.
# Submitted via: audiograbber 1.81.01
#
DISCID=760c0d09
DTITLE=Various Artist - Where Blues Meets Rock (Vol 1)
DYEAR=1900
DGENRE=Blues-Rock
TTITLE0=Omar Dykes - Everywhere I Go
TTITLE1=Walter Trout Band - Say Goodbye To The Blues
TTITLE2=Dave Hole - Up All Night Thinking
TTITLE3=Michael Katon - The Water Won't Boil
TTITLE4=Bobby Mack And Night Train - Drivin' Sideways
TTITLE5=Big Sugar - Wild Ox Moan
TTITLE6=The Hamsters - Heart Of Darkness
TTITLE7=Marc Benno - Love Junkie
TTITLE8=Mason Ruffner - Loaded Down
EXTD=
EXTT0=
EXTT1=
EXTT2=
EXTT3=
EXTT4=
EXTT5=
EXTT6=
EXTT7=
EXTT8=
PLAYORDER=
